<?xml version="1.0" standalone="no"?>
<!DOCTYPE svg PUBLIC "-//W3C//DTD SVG 20010904//EN"
 "http://www.w3.org/TR/2001/REC-SVG-20010904/DTD/svg10.dtd">
<svg version="1.0" xmlns="http://www.w3.org/2000/svg"
 width="600.000000pt" height="600.000000pt" viewBox="0 0 600.000000 600.000000"
 preserveAspectRatio="xMidYMid meet">
<metadata>
Created by potrace 1.11, written by Peter Selinger 2001-2013
</metadata>
<g transform="translate(0.000000,600.000000) scale(0.100000,-0.100000)"
fill="#000000" stroke="none">
<path d="M1287 5763 c-4 -3 -22 -7 -40 -8 -44 -3 -146 -25 -177 -38 -14 -6
-27 -11 -30 -11 -22 -4 -130 -52 -130 -58 0 -5 -6 -8 -13 -8 -18 0 -167 -99
-167 -111 0 -5 -5 -9 -11 -9 -16 0 -153 -135 -202 -200 -23 -30 -45 -56 -49
-58 -5 -2 -8 -10 -8 -18 0 -8 -3 -14 -7 -14 -5 0 -13 -10 -19 -23 -6 -12 -29
-56 -51 -97 -21 -41 -39 -77 -40 -80 0 -3 -12 -43 -27 -89 -57 -181 -55 -109
-53 -1956 1 -935 5 -1709 9 -1720 3 -11 9 -40 13 -65 9 -56 41 -161 67 -220
42 -98 120 -230 140 -238 4 -2 8 -8 8 -13 0 -10 27 -43 77 -97 18 -18 33 -36
33 -38 0 -5 39 -44 44 -44 2 0 20 -15 39 -32 18 -18 44 -40 57 -48 12 -8 28
-21 36 -27 7 -7 17 -13 23 -13 6 0 11 -4 11 -8 0 -13 157 -88 242 -116 150
-50 191 -55 538 -56 581 -2 3094 1 3125 4 17 2 32 5 35 6 3 1 10 3 15 4 130
22 340 105 406 162 8 8 21 14 27 14 7 0 12 7 12 15 0 8 4 14 8 12 19 -5 169
133 240 222 20 25 40 48 45 49 4 2 7 10 7 18 0 8 5 14 11 14 5 0 8 4 5 9 -3 5
1 11 9 15 8 3 15 12 15 21 0 8 5 15 11 15 5 0 8 4 5 9 -4 5 -2 11 2 13 9 3 92
168 96 191 2 7 6 19 9 27 7 17 27 94 33 125 2 11 6 31 8 45 3 14 8 50 12 80 8
73 7 3285 -2 3375 -3 39 -7 79 -8 90 -1 11 -4 25 -7 30 -6 9 -22 78 -24 100 0
6 -3 15 -6 20 -4 6 -12 28 -19 50 -7 22 -17 46 -23 53 -5 6 -7 12 -4 12 9 0
-73 152 -94 176 -11 11 -19 24 -19 28 0 29 -213 245 -300 304 -30 20 -56 40
-58 45 -2 4 -9 7 -17 7 -7 0 -18 7 -25 15 -7 8 -16 13 -20 10 -5 -3 -10 -2
-12 2 -3 7 -73 45 -88 48 -3 0 -15 6 -27 13 -13 7 -23 10 -23 6 0 -3 -7 -1
-15 6 -8 7 -15 9 -15 6 0 -4 -9 -2 -20 4 -11 6 -33 13 -48 15 -15 2 -40 7 -57
11 -16 3 -44 7 -61 8 -16 1 -34 5 -40 8 -16 10 -3374 6 -3380 -4 -3 -5 -11 -5
-18 1 -7 6 -16 8 -19 4z m883 -678 l0 -323 -82 82 c-46 46 -105 97 -133 114
-27 17 -56 36 -63 42 -7 6 -17 8 -22 5 -6 -4 -13 1 -16 9 -3 9 -10 13 -15 10
-5 -3 -9 0 -9 5 0 6 -3 10 -7 9 -5 -1 -45 10 -89 25 -116 37 -207 48 -299 36
-86 -12 -119 -20 -132 -31 -7 -6 -13 -7 -13 -4 0 9 -84 -36 -88 -46 -2 -5 -10
-8 -17 -8 -14 0 -158 -130 -151 -137 2 -2 -7 -16 -20 -30 -13 -14 -22 -28 -19
-31 3 -3 -1 -12 -9 -21 -17 -21 -47 -111 -40 -122 3 -5 1 -9 -4 -9 -10 0 -10
0 -15 -111 -4 -76 10 -222 23 -249 1 -3 3 -9 4 -15 3 -22 39 -121 47 -130 5
-5 9 -17 9 -27 0 -10 4 -18 8 -18 5 0 14 -12 21 -27 51 -112 220 -299 317
-351 13 -7 24 -14 24 -15 0 -2 -173 -3 -384 -4 -383 0 -384 0 -388 21 -5 31 0
925 5 966 10 68 36 161 49 178 6 6 7 12 3 12 -4 0 -2 7 5 15 7 8 9 15 6 15 -4
0 2 13 13 29 11 15 18 31 14 35 -3 3 -1 6 5 6 7 0 12 6 12 13 0 7 13 28 30 47
16 19 29 38 30 43 0 12 132 141 170 167 19 13 38 29 42 35 4 5 8 6 8 2 0 -5
11 1 25 12 14 11 39 23 55 26 17 4 30 11 30 16 0 5 3 8 8 7 4 -1 32 6 63 15
31 9 76 19 100 22 24 3 45 7 46 9 2 2 192 4 423 4 l420 1 0 -324z m2555 312
c52 -10 129 -33 161 -50 17 -9 34 -13 38 -10 3 4 6 0 6 -7 0 -7 3 -11 6 -7 5
5 53 -25 147 -93 29 -21 67 -59 67 -68 0 -4 9 -13 19 -19 11 -7 34 -34 52 -60
18 -26 36 -50 40 -53 21 -15 100 -197 113 -260 3 -14 8 -36 12 -50 4 -14 8
-246 9 -516 l2 -491 -439 0 c-423 0 -439 1 -417 18 13 10 25 16 28 14 2 -2 12
6 22 18 10 12 18 19 19 14 0 -6 30 18 80 63 9 8 37 34 62 57 25 23 43 44 40
47 -3 3 -1 6 5 6 10 0 103 113 103 125 0 3 7 13 15 22 8 8 13 19 10 24 -4 5
-2 9 4 9 11 0 43 66 61 125 7 22 16 45 21 51 5 6 6 14 2 17 -3 4 -1 12 4 19 5
7 9 25 8 40 -1 15 2 25 6 23 4 -3 7 9 7 27 0 18 1 35 2 38 7 20 7 40 -1 40 -6
0 -7 6 -3 12 7 11 10 54 4 61 -1 1 -3 13 -5 27 -6 41 -16 83 -23 94 -4 6 -7
13 -8 16 -11 37 -18 50 -26 50 -5 0 -7 4 -4 9 3 4 -3 16 -14 26 -11 10 -20 22
-20 26 0 13 -87 99 -99 99 -7 0 -9 5 -6 10 3 6 -1 10 -9 10 -8 0 -22 7 -30 16
-9 8 -16 12 -16 7 0 -4 -4 -3 -8 3 -8 12 -113 51 -156 58 -16 3 -31 7 -34 10
-2 3 -13 1 -23 -4 -11 -6 -20 -6 -23 -1 -7 11 -116 8 -135 -4 -10 -6 -12 -4
-6 4 6 10 3 11 -12 2 -11 -6 -23 -7 -27 -4 -3 3 -6 2 -6 -3 0 -5 -11 -10 -25
-11 -56 -5 -65 -8 -65 -15 0 -4 -3 -7 -7 -6 -10 2 -37 -8 -93 -34 -25 -12 -50
-21 -56 -20 -7 1 -14 -4 -18 -13 -3 -8 -12 -15 -21 -15 -8 0 -15 -5 -15 -11 0
-5 -4 -8 -9 -4 -6 3 -14 -3 -20 -12 -6 -10 -11 -14 -11 -10 0 5 -7 1 -16 -7
-8 -9 -20 -13 -26 -10 -7 4 -8 2 -4 -4 4 -7 4 -12 -1 -12 -18 0 -184 -155
-175 -164 3 -3 0 -6 -6 -6 -9 0 -12 93 -12 364 l0 365 463 -4 c254 -2 476 -5
492 -8z m-3993 -3076 c10 5 18 6 18 1 0 -9 78 -8 87 1 3 3 15 2 27 -3 13 -4
29 -4 39 1 10 6 17 6 17 1 0 -5 20 -6 45 -2 25 4 45 4 45 0 0 -3 15 -5 33 -3
56 6 138 6 143 0 4 -3 16 -2 28 2 11 5 30 5 41 1 11 -4 32 -4 48 1 15 4 27 4
27 0 0 -4 15 -6 33 -4 54 6 134 6 143 1 5 -3 18 -2 29 2 11 4 30 4 43 -1 12
-5 32 -5 45 0 12 5 31 5 42 1 11 -4 28 -3 38 2 9 5 17 5 17 0 0 -5 22 -6 49
-2 27 3 58 3 70 -1 11 -5 23 -4 26 2 4 5 11 6 17 2 7 -3 26 -6 43 -6 17 0 36
3 43 6 6 4 13 3 17 -3 4 -7 12 -7 26 0 10 6 19 7 19 2 0 -7 55 -8 85 -2 6 1
20 2 33 1 l22 -1 0 -855 0 -855 -22 -1 c-103 -4 -831 0 -860 5 -68 11 -193 57
-261 97 -62 37 -183 139 -215 181 -7 9 -18 23 -25 30 -21 21 -76 104 -79 119
-2 8 -7 17 -13 21 -5 4 -10 11 -11 15 0 4 -6 22 -13 38 -29 70 -49 145 -58
220 -2 17 -5 244 -6 505 l-2 475 37 1 c21 0 41 3 45 7 3 4 11 3 16 -2 7 -7 17
-7 29 0z m3087 -5 c14 -1 35 1 46 5 11 3 29 3 40 -1 11 -4 28 -3 38 2 9 5 17
5 17 0 0 -5 22 -6 49 -2 27 3 58 3 70 -1 11 -5 23 -4 26 2 4 5 11 6 17 2 7 -3
26 -6 43 -6 17 0 36 3 43 6 6 4 13 3 17 -3 4 -7 12 -7 26 0 10 6 19 7 19 2 0
-9 78 -8 87 1 3 3 15 2 27 -3 13 -4 29 -4 39 1 10 6 17 6 17 1 0 -5 20 -6 45
-2 25 4 45 4 45 0 0 -3 15 -5 33 -3 54 6 134 6 143 1 5 -3 18 -2 29 2 11 4 30
4 43 -1 12 -5 32 -5 45 0 12 5 31 5 42 1 11 -4 28 -3 38 2 9 5 17 5 17 0 0 -5
22 -6 49 -2 27 3 58 3 70 -1 11 -5 23 -4 26 2 4 5 11 6 17 2 15 -8 71 -8 86 0
6 4 13 3 17 -3 4 -7 12 -7 26 0 10 6 19 7 19 2 0 -9 78 -8 87 1 3 3 15 2 27
-3 12 -4 29 -4 38 1 14 8 15 -40 13 -494 -1 -276 -5 -513 -9 -527 -4 -14 -9
-36 -12 -50 -8 -36 -40 -129 -48 -137 -4 -4 -15 -26 -26 -49 -45 -104 -193
-264 -315 -341 -89 -57 -199 -97 -295 -110 -29 -3 -779 -7 -887 -4 l-33 1 0
861 c0 645 3 858 11 853 7 -4 24 -8 38 -8z"/>
</g>
</svg>
